<svg width="377" height="217" viewBox="0 0 377 217" fill="none" xmlns="http://www.w3.org/2000/svg"><circle opacity=".1" cx="60" cy="111" r="8" fill="#50B946"/><circle opacity=".1" cx="301" cy="19" r="8" fill="#50B946"/><path opacity=".1" d="M30 78a8 8 0 018-8h144a8 8 0 010 16H38a8 8 0 01-8-8z" fill="#50B946"/><rect opacity=".1" x="81" y="103" width="124" height="16" rx="8" fill="#50B946"/><rect opacity=".1" x="119" y="136" width="77" height="16" rx="8" fill="#50B946"/><g clip-path="url(#clip0)"><path d="M347.7 145.83L230.3 159.5a7.2 7.2 0 01-7.44-3.96c-1.4-2.8-.7-6.09 1.43-8.48l7.19-7.28c.23-.3.73-.62 1.26-.68l100.48-11.7a2.1 2.1 0 012.36 1.87 2.1 2.1 0 01-1.86 2.36l-99.7 11.61-6.69 6.95c-1.2 1.21-1.01 2.8-.63 3.83.4 1.02 1.57 1.96 3.43 1.74l117.14-13.64a2.1 2.1 0 012.36 1.87c.15 1.32-.87 1.71-1.93 1.84z" fill="#50B946"/><path d="M233.47 143.04c-.8.09-1.65-.35-2.04-1.38l-39.5-109.1a3.16 3.16 0 00-3.49-2.28l-18.77 2.18c-1.32.16-2.21-.55-2.36-1.87-.16-1.32.54-2.2 1.86-2.36l18.78-2.19a7.43 7.43 0 017.79 4.73L235 140.17c.39 1.03-.28 2.18-1.31 2.57.03.27-.23.3-.23.3z" fill="#50B946"/><path d="M333.7 129.22l-100.48 11.7-27.75-77.23 137.5-16-9.27 81.53z" fill="#EDF8EC"/><path d="M317.35 117.71l-88.85 10.35-23.03-64.37 123.75-14.4-7.3 63.87a5.13 5.13 0 01-4.57 4.55z" fill="#fff"/><path d="M333.95 131.34l-100.48 11.7c-.8.09-1.92-.32-2.04-1.38l-27.75-77.22c-.33-.5-.16-1.32.07-1.62.2-.56.97-.92 1.5-.98l137.5-16.01c.53-.06 1.1.14 1.68.6.33.5.65 1 .45 1.57l-9.26 81.53c-.15 1.1-.88 1.71-1.67 1.8zm-99.62 7.57l97.3-11.33 8.94-77.47L208.1 65.53l26.24 73.38z" fill="#50B946"/><path d="M312.53 133.83l-57.91 6.74a1.82 1.82 0 01-2.07-1.63l-19.82-78.15c-.06-.53-.12-1.06.34-1.65.2-.56.7-.89 1.5-.98l79.33-9.24c.53-.06 1.09.14 1.68.61.32.5.65 1 .71 1.53l-1.33 80.61c-.67 1.15-1.37 2.04-2.43 2.16zm-56.79 2.59l54.47-6.34 1.54-76.62-74.84 8.72 18.83 74.24z" fill="#50B946"/><path d="M293.23 136.08l-19.3 2.25a1.82 1.82 0 01-2.07-1.64L259.18 57.7a3.8 3.8 0 01.34-1.65c.23-.3.73-.62 1.26-.68l26.44-3.08c.53-.07 1.1.14 1.39.37.3.24.62.73.71 1.53l5.8 79.78c-.13 1.09-.83 1.98-1.9 2.1zm-17.92-1.94l15.6-1.82-5.34-75.8-22.21 2.58 11.95 75.04z" fill="#50B946"/><path d="M336.95 104.17l-112.91 13.15a2.1 2.1 0 01-2.36-1.88 2.1 2.1 0 011.86-2.36l112.92-13.15a2.1 2.1 0 012.36 1.87c-.11 1.36-.81 2.24-1.87 2.37zM339.95 77L214.87 91.56a2.1 2.1 0 01-2.36-1.87 2.1 2.1 0 011.87-2.36l125.08-14.57a2.1 2.1 0 012.36 1.88 2.1 2.1 0 01-1.87 2.36z" fill="#50B946"/><path d="M255.57 31.3a5.33 5.33 0 10-1.24-10.57 5.33 5.33 0 001.24 10.58z" fill="#fff"/><path d="M255.78 33.16a7.44 7.44 0 01-8.27-6.55 7.28 7.28 0 016.55-8.27 7.28 7.28 0 018.26 6.55 7.28 7.28 0 01-6.54 8.27zm-1.23-10.58a3.53 3.53 0 00-3.04 3.84 3.53 3.53 0 003.84 3.04 3.53 3.53 0 003.04-3.84 3.53 3.53 0 00-3.84-3.04z" fill="#50B946"/><path d="M315.24 35.09A5.33 5.33 0 10314 24.5a5.33 5.33 0 001.24 10.58z" fill="#fff"/><path d="M317.79 39.69a7.44 7.44 0 01-8.27-6.55 7.28 7.28 0 016.54-8.27 7.44 7.44 0 018.27 6.55 7.44 7.44 0 01-6.54 8.27zm-1.24-10.59a3.53 3.53 0 00-3.03 3.84 3.53 3.53 0 003.83 3.04 3.52 3.52 0 003.04-3.84c-.48-1.82-2.25-3.22-3.84-3.04z" fill="#50B946"/><ellipse cx="329" cy="179.5" rx="31" ry="3.5" fill="#EDF8EC"/><circle cx="328" cy="143" r="25" fill="#fff"/><path d="M308.28 147.1a21.47 21.47 0 1142.32-7.32 21.47 21.47 0 01-42.32 7.32zm47.82-8.29a27.09 27.09 0 00-31.29-22.05 27.09 27.09 0 00-22.05 31.3 27.09 27.09 0 0031.3 22.04 27.09 27.09 0 0022.04-31.29z" fill="#50B946"/><path d="M331.66 156.3a13.1 13.1 0 01-15.1-10.64 13.1 13.1 0 0110.64-15.1 13.1 13.1 0 0115.1 10.64 13.1 13.1 0 01-10.64 15.1z" fill="#50B946"/><path d="M356.1 138.81l-.23-1.38a27.13 27.13 0 01-22.3 29.91 27.13 27.13 0 01-31.04-20.66l.24 1.37a27.09 27.09 0 0031.29 22.05 27.09 27.09 0 0022.05-31.29z" fill="#8DD386"/><path d="M356.1 138.81l.24 1.38a27.13 27.13 0 00-31.05-20.67A27.14 27.14 0 00303 149.43l-.24-1.38a27.09 27.09 0 0122.06-31.29 27.09 27.09 0 0131.28 22.05z" fill="#fff"/><path d="M301.85 148.21a28.08 28.08 0 0122.8-32.37 28.08 28.08 0 0132.38 22.81 28.08 28.08 0 01-22.81 32.37 28.08 28.08 0 01-32.37-22.8zm53.34-9.24a26.2 26.2 0 00-30.21-21.28 26.2 26.2 0 00-21.3 30.2 26.21 26.21 0 0030.22 21.3 26.21 26.21 0 0021.29-30.22z" fill="#50B946" stroke="#50B946"/><path d="M307.36 147.26a22.47 22.47 0 0118.25-25.9 22.47 22.47 0 0125.9 18.25 22.47 22.47 0 01-18.25 25.9 22.47 22.47 0 01-25.9-18.25zm42.3-7.33a20.6 20.6 0 00-23.73-16.73 20.6 20.6 0 00-16.73 23.74 20.6 20.6 0 0023.74 16.73 20.6 20.6 0 0016.73-23.74z" fill="#50B946" stroke="#50B946" stroke-width=".5"/><path d="M315.64 145.82a13.98 13.98 0 0111.4-16.18 13.98 13.98 0 0116.19 11.4 13.98 13.98 0 01-11.4 16.19 13.98 13.98 0 01-16.19-11.4zm25.75-4.46a12.1 12.1 0 00-14.03-9.88 12.1 12.1 0 00-9.88 14.03 12.1 12.1 0 0014.03 9.88 12.1 12.1 0 009.88-14.03z" fill="#50B946" stroke="#50B946" stroke-width=".5"/><path d="M307.36 147.26c-.1-.55.21-.98.76-1.08l8.28-1.44c.55-.09.98.21 1.08.77.1.55-.2.98-.76 1.07l-8.28 1.44c-.55.1-.98-.21-1.08-.76zM341.4 141.36c-.1-.55.2-.98.75-1.08l8.28-1.43c.55-.1.98.2 1.08.76.1.55-.21.98-.76 1.08l-8.28 1.43c-.55.1-.98-.2-1.08-.76zM332.18 164.75l-1.43-8.28c-.1-.55.2-.98.76-1.08.55-.1.98.2 1.07.76l1.44 8.28c.1.55-.21.98-.76 1.08-.55.1-.99-.21-1.08-.76zM326.29 130.72l-1.44-8.28c-.1-.55.21-.98.76-1.08.55-.1.99.21 1.08.76l1.43 8.28c.1.55-.2.98-.76 1.08-.55.1-.98-.21-1.07-.76zM316.12 161.18a.85.85 0 01.17-.7l4.86-6.9a.9.9 0 011.29-.22c.43.3.53.86.22 1.29l-4.86 6.9a.9.9 0 01-1.3.23 1.02 1.02 0 01-.38-.6zM336.04 132.91a.84.84 0 01.17-.69l4.86-6.9a.9.9 0 011.3-.23c.42.3.52.86.21 1.29l-4.86 6.9a.9.9 0 01-1.29.23.85.85 0 01-.39-.6zM339.2 151.12a.84.84 0 01.16-.69.9.9 0 011.3-.22l6.9 4.86c.43.3.52.86.22 1.29a.9.9 0 01-1.29.22l-6.9-4.86a.85.85 0 01-.39-.6zM310.93 131.2a.85.85 0 01.17-.7.9.9 0 011.28-.21l6.9 4.86c.44.3.54.86.23 1.29a.9.9 0 01-1.29.22l-6.9-4.86a.85.85 0 01-.39-.6z" fill="#50B946" stroke="#50B946" stroke-width=".5"/><path d="M336 142.28c-.25-1.44-1.49-2.43-2.87-2.2-.83.15-1.34.61-1.7 1.17l-1.34 2.07 1.96 1.5c.53.4 1.16.67 1.99.52 1.38-.26 2.21-1.6 1.96-3.06zM322.87 144.59c.25 1.44 1.49 2.43 2.87 2.19.83-.14 1.34-.6 1.7-1.16l1.34-2.07-1.95-1.5a2.48 2.48 0 00-2-.53c-1.38.26-2.21 1.61-1.96 3.07zM330.6 150c1.43-.25 2.42-1.49 2.18-2.87a2.48 2.48 0 00-1.16-1.7l-2.07-1.34-1.5 1.95c-.4.53-.67 1.17-.52 2 .26 1.38 1.6 2.21 3.06 1.96zM328.28 136.87c-1.44.25-2.43 1.49-2.19 2.87.14.83.6 1.34 1.16 1.7l2.07 1.34 1.5-1.96c.4-.53.67-1.16.53-2-.26-1.37-1.61-2.2-3.07-1.95z" fill="#fff"/><circle cx="244.5" cy="154.5" r="25.5" fill="#fff"/><path d="M242.52 175.32a21.47 21.47 0 114.97-42.65 21.47 21.47 0 01-4.97 42.65zm5.61-48.2a27.09 27.09 0 00-30.01 23.75 27.09 27.09 0 0023.75 30.01 27.09 27.09 0 0030.01-23.75 27.09 27.09 0 00-23.75-30.02z" fill="#50B946"/><path d="M257.98 155.51a13.1 13.1 0 01-14.5 11.47 13.1 13.1 0 01-11.46-14.5 13.1 13.1 0 0114.49-11.46 13.1 13.1 0 0111.47 14.5z" fill="#50B946"/><path d="M248.13 127.11l-1.4-.16a27.13 27.13 0 0122.37 29.86 27.13 27.13 0 01-28.62 23.91l1.39.16a27.09 27.09 0 0030.01-23.75 27.09 27.09 0 00-23.75-30.02z" fill="#8DD386"/><path d="M248.13 127.11l1.4.17a27.13 27.13 0 00-28.63 23.91 27.13 27.13 0 0022.36 29.86l-1.39-.17a27.09 27.09 0 01-23.75-30.01 27.09 27.09 0 0130.01-23.76z" fill="#fff"/><path d="M241.76 181.81a28.08 28.08 0 01-24.57-31.05 28.08 28.08 0 0131.05-24.57 28.08 28.08 0 0124.57 31.05 28.08 28.08 0 01-31.05 24.57zm6.26-53.77a26.21 26.21 0 00-28.98 22.94 26.21 26.21 0 0022.94 28.98 26.21 26.21 0 0028.98-22.94 26.21 26.21 0 00-22.94-28.98z" fill="#50B946" stroke="#50B946"/><path d="M242.4 176.25a22.47 22.47 0 01-19.65-24.84 22.47 22.47 0 0124.84-19.66 22.47 22.47 0 0119.66 24.84 22.46 22.46 0 01-24.84 19.66zm4.97-42.65a20.6 20.6 0 00-22.77 18.03 20.6 20.6 0 0018.02 22.77 20.6 20.6 0 0022.77-18.03 20.6 20.6 0 00-18.02-22.77z" fill="#50B946" stroke="#50B946" stroke-width=".5"/><path d="M243.38 167.9a13.98 13.98 0 01-12.29-15.52c.9-7.7 7.83-13.18 15.53-12.29 7.7.9 13.18 7.83 12.28 15.53a13.98 13.98 0 01-15.52 12.29zm3.02-25.95a12.1 12.1 0 00-13.45 10.65 12.1 12.1 0 0010.64 13.45 12.1 12.1 0 0013.46-10.65 12.1 12.1 0 00-10.65-13.45z" fill="#50B946" stroke="#50B946" stroke-width=".5"/><path d="M242.4 176.25c-.55-.06-.88-.48-.81-1.03l.97-8.35c.06-.56.48-.88 1.03-.82.56.07.89.48.82 1.04l-.97 8.34c-.06.56-.48.88-1.03.82zM246.4 141.95c-.55-.07-.88-.48-.82-1.04l.98-8.34c.06-.56.47-.88 1.03-.82.56.06.88.48.82 1.03l-.97 8.35c-.07.56-.48.88-1.04.82zM266.21 157.41l-8.34-.97c-.56-.07-.88-.48-.82-1.04.07-.55.48-.88 1.04-.82l8.34.98c.56.06.88.47.82 1.03-.06.56-.48.88-1.04.82zM231.91 153.41l-8.34-.97c-.56-.06-.89-.47-.82-1.03.06-.56.48-.88 1.03-.82l8.35.97c.55.07.88.48.81 1.04-.06.55-.47.88-1.03.81zM258.24 171.8a.85.85 0 01-.61-.36l-5.25-6.62a.9.9 0 01.16-1.3.9.9 0 011.3.15l5.23 6.63a.9.9 0 01-.15 1.3c-.2.16-.5.22-.68.2zM236.78 144.68a.84.84 0 01-.62-.35l-5.24-6.63a.9.9 0 01.15-1.3.9.9 0 011.3.16l5.24 6.62a.9.9 0 01-.15 1.3c-.2.16-.4.23-.68.2zM255.14 146.82a.85.85 0 01-.62-.36.9.9 0 01.15-1.3l6.63-5.24a.9.9 0 011.3.16.9.9 0 01-.16 1.3l-6.62 5.24c-.2.16-.4.23-.68.2zM228.02 168.28a.84.84 0 01-.62-.35.9.9 0 01.16-1.3l6.62-5.25a.9.9 0 011.3.16.9.9 0 01-.15 1.3l-6.63 5.24c-.2.16-.4.23-.68.2z" fill="#50B946" stroke="#50B946" stroke-width=".5"/><path d="M245.75 147.38c-1.45-.17-2.75.74-2.91 2.13-.1.84.2 1.45.63 1.96l1.6 1.87 2-1.45c.53-.4.97-.93 1.06-1.76.15-1.4-.9-2.58-2.38-2.75zM244.25 160.62c1.45.17 2.75-.74 2.91-2.13.1-.84-.2-1.45-.63-1.96l-1.6-1.87-2 1.45c-.53.4-.97.93-1.07 1.76-.14 1.4.91 2.58 2.39 2.75zM251.62 154.75c.17-1.45-.74-2.75-2.13-2.91-.84-.1-1.45.2-1.96.63l-1.87 1.6 1.45 2c.4.53.93.97 1.76 1.07 1.4.14 2.58-.92 2.75-2.39zM238.38 153.25c-.17 1.45.73 2.75 2.13 2.91.84.1 1.45-.2 1.96-.63l1.87-1.6-1.45-2c-.4-.53-.93-.97-1.76-1.07-1.4-.14-2.58.91-2.75 2.39z" fill="#fff"/></g><defs><clipPath id="clip0"><path fill="#fff" transform="rotate(-6.64 277.78 -1353.16)" d="M0 0h197v195H0z"/></clipPath></defs></svg>